<svg width="65" height="65" viewBox="0 0 65 65" fill="none" xmlns="http://www.w3.org/2000/svg">
<rect width="65" height="65" rx="32.5" fill="#848484"/>
<path d="M44 33H40.6667C39.5621 33 38.6667 33.8954 38.6667 35V39C38.6667 40.1046 39.5621 41 40.6667 41H42C43.1046 41 44 40.1046 44 39V33C44 26.3726 38.6274 21 32 21C25.3726 21 20 26.3726 20 33V39C20 40.1046 20.8954 41 22 41H23.3333C24.4379 41 25.3333 40.1046 25.3333 39V35C25.3333 33.8954 24.4379 33 23.3333 33H20" stroke="white" stroke-width="2"/>
<path d="M44 35.667V41.0003C44 41.0003 44 45.0003 41.3333 45.0003C38.6666 45.0003 34.6666 45.0003 34.6666 45.0003" stroke="white" stroke-width="2" stroke-linejoin="round"/>
</svg>
