<svg width="90" height="18" viewBox="0 0 90 18" fill="none" xmlns="http://www.w3.org/2000/svg">
<path d="M45.0001 2.41504L46.6351 7.44754H51.9226L47.6476 10.5525L49.2826 15.585L45.0001 12.48L40.7176 15.585L42.3526 10.5525L38.0776 7.44754H43.3651L45.0001 2.41504Z" fill="#3D80FF"/>
<path d="M27.0001 2.41504L28.6351 7.44754H33.9226L29.6476 10.5525L31.2826 15.585L27.0001 12.48L22.7176 15.585L24.3526 10.5525L20.0776 7.44754H25.3651L27.0001 2.41504Z" fill="#3D80FF"/>
<path d="M27.0001 2.41504L28.6351 7.44754H33.9226L29.6476 10.5525L31.2826 15.585L27.0001 12.48L22.7176 15.585L24.3526 10.5525L20.0776 7.44754H25.3651L27.0001 2.41504Z" fill="#3D80FF"/>
<path d="M81.0001 2.41504L82.6351 7.44754H87.9226L83.6476 10.5525L85.2826 15.585L81.0001 12.48L76.7176 15.585L78.3526 10.5525L74.0776 7.44754H79.3651L81.0001 2.41504Z" fill="#3D80FF"/>
<path d="M9.00014 2.41504L10.6351 7.44754H15.9226L11.6476 10.5525L13.2826 15.585L9.00014 12.48L4.71764 15.585L6.35264 10.5525L2.07764 7.44754H7.36514L9.00014 2.41504Z" fill="#3D80FF"/>
<path d="M63.0001 2.41504L64.6351 7.44754H69.9226L65.6476 10.5525L67.2826 15.585L63.0001 12.48L58.7176 15.585L60.3526 10.5525L56.0776 7.44754H61.3651L63.0001 2.41504Z" fill="#3D80FF"/>
</svg>
