<svg width="24" height="24" viewBox="0 0 24 24" fill="none" xmlns="http://www.w3.org/2000/svg">
<path d="M7.30127 14.001C8.07362 15.7577 9.98832 16.9998 11.9998 16.9998C14.0027 16.9998 15.9137 15.7544 16.6927 14.0054" stroke="#5A990B" stroke-linecap="round"/>
<path fill-rule="evenodd" clip-rule="evenodd" d="M9 10C9.55228 10 10 9.55228 10 9C10 8.44772 9.55228 8 9 8C8.44772 8 8 8.44772 8 9C8 9.55228 8.44772 10 9 10Z" fill="#5A990B"/>
<path fill-rule="evenodd" clip-rule="evenodd" d="M15 10C15.5523 10 16 9.55228 16 9C16 8.44772 15.5523 8 15 8C14.4477 8 14 8.44772 14 9C14 9.55228 14.4477 10 15 10Z" fill="#5A990B"/>
<path fill-rule="evenodd" clip-rule="evenodd" d="M12 22C17.5228 22 22 17.5228 22 12C22 6.47715 17.5228 2 12 2C6.47715 2 2 6.47715 2 12C2 17.5228 6.47715 22 12 22Z" stroke="#5A990B"/>
</svg>
